<svg width="24" height="22" viewBox="0 0 24 22" fill="none" xmlns="http://www.w3.org/2000/svg">
<path d="M16.8286 3.49129L20.4133 7.28087C20.5643 7.44052 20.5643 7.701 20.4133 7.86065L11.7337 17.0363L8.04569 17.469C7.5529 17.5279 7.13561 17.0867 7.19125 16.5658L7.60059 12.6669L16.2802 3.49129C16.4312 3.33164 16.6776 3.33164 16.8286 3.49129ZM23.2667 2.52919L21.3273 0.478949C20.7233 -0.15965 19.7417 -0.15965 19.1336 0.478949L17.7268 1.96621C17.5757 2.12586 17.5757 2.38634 17.7268 2.54599L21.3115 6.33557C21.4625 6.49522 21.7089 6.49522 21.8599 6.33557L23.2667 4.84831C23.8708 4.20551 23.8708 3.16779 23.2667 2.52919ZM16.0894 14.5407V18.8177H3.37208V5.37347H12.5047C12.6319 5.37347 12.7511 5.31886 12.8425 5.22643L14.4322 3.5459C14.7342 3.2266 14.5196 2.68464 14.0944 2.68464H2.73621C1.68306 2.68464 0.828613 3.58792 0.828613 4.70126V19.4899C0.828613 20.6032 1.68306 21.5065 2.73621 21.5065H16.7253C17.7784 21.5065 18.6329 20.6032 18.6329 19.4899V12.8602C18.6329 12.4107 18.1202 12.188 17.8182 12.5031L16.2285 14.1836C16.1411 14.2802 16.0894 14.4063 16.0894 14.5407Z" fill="white"/>
</svg>
